<!-- Generator: Adobe Illustrator 24.1.0, SVG Export Plug-In  -->
<svg version="1.1" xmlns="http://www.w3.org/2000/svg" xmlns:xlink="http://www.w3.org/1999/xlink" x="0px" y="0px"
	 width="1002.57px" height="297.98px" viewBox="0 0 1002.57 297.98" style="enable-background:new 0 0 1002.57 297.98;"
	 xml:space="preserve">
<style type="text/css">
	.st0{fill:#010101;}
	.st1{fill:#99FEB2;}
	.st2{fill:#FFFFFF;}
</style>
<defs>
</defs>
<g id="shadow_1_">
	<path id="p_3_" class="st0" d="M10,23.37c0-3.75,1.87-6.37,5.24-6.37h87.29c17.23,0,72.68,12.36,72.68,83.17
		c0,34.84-31.09,69.31-67.06,69.31c-18.36,0-20.23,0-20.23,4.5v118.76c0,3-2.25,5.25-6.37,5.25H15.99c-3.37,0-5.99-3-5.99-6.74
		V23.37z M87.92,121.15c0,1.5,1.12,4.12,3.75,4.12c5.62,0,7.87-4.87,7.87-12.36V97.55c0-5.99-3-10.11-7.87-10.11
		c-1.12,0-1.87,0-2.62,0.37c-0.75,0.37-1.12,1.87-1.12,3V121.15z"/>
	<path id="a_7_" class="st0" d="M283.1,17c2.62,0,4.5,2.25,4.87,4.87l51.33,267.86c0.75,4.12-1.12,8.24-5.25,8.24h-60.69
		c-2.25,0-4.5-1.5-4.87-3.75l-7.49-56.2c-0.37-1.87-1.87-3-3.75-3h-20.23c-1.5,0-3,1.5-3.37,3.75l-7.12,55.07
		c-0.38,2.62-3,4.12-4.87,4.12h-61.81c-3.37,0-5.24-2.62-4.5-6.37l50.2-270.11c0.37-1.87,2.25-4.5,4.5-4.5H283.1z M250.13,158.24
		c-0.75-5.25-1.5-8.62-2.62-8.62c-1.12,0-1.87,2.62-2.62,8.62l-4.87,35.59c-0.37,1.87,0.38,3.75,2.25,3.75
		c11.99,0,13.11,0,12.74-3.37L250.13,158.24z"/>
	<path id="y_7_" class="st0" d="M304.45,20c-0.37-1.12,0.37-3,2.25-3h68.18c1.87,0,3.37,1.12,4.12,3.75l17.98,77.55
		c0.37,1.87,1.5,3,1.87,3c0.75,0,1.87-1.12,1.87-3l17.23-76.43c0.75-2.62,2.25-4.87,4.5-4.87h65.19c2.25,0,3.75,2.25,3,4.5
		l-49.08,157.72c-1.5,5.24-3.37,15.73-3.37,19.86v94.03c-0.37,2.62-2.25,4.87-5.24,4.87H359.9c-2.25,0-4.12-2.62-4.5-4.5v-95.16
		c0-5.62-0.75-10.12-3.37-18.36L304.45,20z"/>
	<path id="d_3_" class="st0" d="M502.63,297.98c-3,0-4.5-1.87-4.5-4.5V22.62c0-3,1.87-5.62,4.87-5.62h67.06
		c59.57,0,94.78,37.84,94.78,106.02v69.68c0,60.69-34.09,105.27-92.16,105.27H502.63z M589.54,101.29c0-3.75-1.12-6.74-3.37-8.62
		c-1.5-1.12-4.5-2.25-6.37-2.25c-1.5,0-2.25,1.12-2.25,3.37v124.38c0,2.25,0.75,3,2.25,3c2.25,0,9.74,0,9.74-10.86V101.29z"/>
	<path id="a_6_" class="st0" d="M794.83,17c2.62,0,4.5,2.25,4.87,4.87l51.33,267.86c0.75,4.12-1.12,8.24-5.25,8.24h-60.69
		c-2.25,0-4.5-1.5-4.87-3.75l-7.49-56.2c-0.37-1.87-1.87-3-3.75-3h-20.23c-1.5,0-3,1.5-3.37,3.75l-7.12,55.07
		c-0.38,2.62-3,4.12-4.87,4.12h-61.81c-3.37,0-5.25-2.62-4.5-6.37l50.2-270.11c0.37-1.87,2.25-4.5,4.5-4.5H794.83z M761.87,158.24
		c-0.75-5.25-1.5-8.62-2.62-8.62s-1.87,2.62-2.62,8.62l-4.87,35.59c-0.37,1.87,0.38,3.75,2.25,3.75c11.99,0,13.11,0,12.74-3.37
		L761.87,158.24z"/>
	<path id="y_6_" class="st0" d="M816.18,20c-0.38-1.12,0.38-3,2.25-3h68.18c1.87,0,3.37,1.12,4.12,3.75l17.98,77.55
		c0.38,1.87,1.5,3,1.87,3c0.75,0,1.87-1.12,1.87-3l17.23-76.43c0.75-2.62,2.25-4.87,4.5-4.87h65.19c2.25,0,3.75,2.25,3,4.5
		L953.3,179.22c-1.5,5.24-3.37,15.73-3.37,19.86v94.03c-0.38,2.62-2.25,4.87-5.25,4.87h-73.05c-2.25,0-4.12-2.62-4.5-4.5v-95.16
		c0-5.62-0.75-10.12-3.37-18.36L816.18,20z"/>
</g>
<g id="text_1_">
	<path id="p_2_" class="st1" d="M0,6.37C0,2.62,1.87,0,5.24,0h87.29c17.23,0,72.68,12.36,72.68,83.17
		c0,34.84-31.09,69.31-67.06,69.31c-18.36,0-20.23,0-20.23,4.5v118.76c0,3-2.25,5.25-6.37,5.25H5.99c-3.37,0-5.99-3-5.99-6.74V6.37z
		 M77.92,104.15c0,1.5,1.12,4.12,3.75,4.12c5.62,0,7.87-4.87,7.87-12.36V80.55c0-5.99-3-10.11-7.87-10.11c-1.12,0-1.87,0-2.62,0.37
		c-0.75,0.37-1.12,1.87-1.12,3V104.15z"/>
	<path id="a_5_" class="st1" d="M273.1,0c2.62,0,4.5,2.25,4.87,4.87l51.33,267.86c0.75,4.12-1.12,8.24-5.25,8.24h-60.69
		c-2.25,0-4.5-1.5-4.87-3.75l-7.49-56.2c-0.37-1.87-1.87-3-3.75-3h-20.23c-1.5,0-3,1.5-3.37,3.75l-7.12,55.07
		c-0.38,2.62-3,4.12-4.87,4.12h-61.81c-3.37,0-5.24-2.62-4.5-6.37L195.55,4.5c0.37-1.87,2.25-4.5,4.5-4.5H273.1z M240.13,141.24
		c-0.75-5.25-1.5-8.62-2.62-8.62c-1.12,0-1.87,2.62-2.62,8.62l-4.87,35.59c-0.37,1.87,0.38,3.75,2.25,3.75
		c11.99,0,13.11,0,12.74-3.37L240.13,141.24z"/>
	<path id="y_5_" class="st1" d="M294.45,3c-0.37-1.12,0.37-3,2.25-3h68.18c1.87,0,3.37,1.12,4.12,3.75l17.98,77.55
		c0.37,1.87,1.5,3,1.87,3c0.75,0,1.87-1.12,1.87-3l17.23-76.43c0.75-2.62,2.25-4.87,4.5-4.87h65.19c2.25,0,3.75,2.25,3,4.5
		l-49.08,157.72c-1.5,5.24-3.37,15.73-3.37,19.86v94.03c-0.37,2.62-2.25,4.87-5.24,4.87H349.9c-2.25,0-4.12-2.62-4.5-4.5v-95.16
		c0-5.62-0.75-10.12-3.37-18.36L294.45,3z"/>
	<path id="d_2_" class="st1" d="M492.63,280.98c-3,0-4.5-1.87-4.5-4.5V5.62c0-3,1.87-5.62,4.87-5.62h67.06
		c59.57,0,94.78,37.84,94.78,106.02v69.68c0,60.69-34.09,105.27-92.16,105.27H492.63z M579.54,84.29c0-3.75-1.12-6.74-3.37-8.62
		c-1.5-1.12-4.5-2.25-6.37-2.25c-1.5,0-2.25,1.12-2.25,3.37v124.38c0,2.25,0.75,3,2.25,3c2.25,0,9.74,0,9.74-10.86V84.29z"/>
	<path id="a_4_" class="st1" d="M784.83,0c2.62,0,4.5,2.25,4.87,4.87l51.33,267.86c0.75,4.12-1.12,8.24-5.25,8.24h-60.69
		c-2.25,0-4.5-1.5-4.87-3.75l-7.49-56.2c-0.37-1.87-1.87-3-3.75-3h-20.23c-1.5,0-3,1.5-3.37,3.75l-7.12,55.07
		c-0.38,2.62-3,4.12-4.87,4.12h-61.81c-3.37,0-5.25-2.62-4.5-6.37L707.28,4.5c0.37-1.87,2.25-4.5,4.5-4.5H784.83z M751.87,141.24
		c-0.75-5.25-1.5-8.62-2.62-8.62s-1.87,2.62-2.62,8.62l-4.87,35.59c-0.37,1.87,0.38,3.75,2.25,3.75c11.99,0,13.11,0,12.74-3.37
		L751.87,141.24z"/>
	<path id="y_4_" class="st1" d="M806.18,3c-0.38-1.12,0.38-3,2.25-3h68.18c1.87,0,3.37,1.12,4.12,3.75l17.98,77.55
		c0.38,1.87,1.5,3,1.87,3c0.75,0,1.87-1.12,1.87-3L919.7,4.87c0.75-2.62,2.25-4.87,4.5-4.87h65.19c2.25,0,3.75,2.25,3,4.5
		L943.3,162.22c-1.5,5.24-3.37,15.73-3.37,19.86v94.03c-0.38,2.62-2.25,4.87-5.25,4.87h-73.05c-2.25,0-4.12-2.62-4.5-4.5v-95.16
		c0-5.62-0.75-10.12-3.37-18.36L806.18,3z"/>
</g>
<g id="highlight_1_">
	<g>
		<g>
			<path class="st2" d="M15.46,19.01c30.88,0,61.75,0,92.63,0c7.72,0,7.73-12,0-12c-30.88,0-61.75,0-92.63,0
				C7.74,7.01,7.73,19.01,15.46,19.01L15.46,19.01z"/>
		</g>
	</g>
	<g>
		<g>
			<path class="st2" d="M206.09,19.01c19.33,0,38.67,0,58,0c7.72,0,7.73-12,0-12c-19.33,0-38.67,0-58,0
				C198.37,7.01,198.36,19.01,206.09,19.01L206.09,19.01z"/>
		</g>
	</g>
	<g>
		<g>
			<path class="st2" d="M305.09,19.01c17.33,0,34.67,0,52,0c7.72,0,7.73-12,0-12c-17.33,0-34.67,0-52,0
				C297.37,7.01,297.36,19.01,305.09,19.01L305.09,19.01z"/>
		</g>
	</g>
	<g>
		<g>
			<path class="st2" d="M417.46,19.01c17.21,0,34.42,0,51.63,0c7.72,0,7.73-12,0-12c-17.21,0-34.42,0-51.63,0
				C409.74,7.01,409.73,19.01,417.46,19.01L417.46,19.01z"/>
		</g>
	</g>
	<g>
		<g>
			<path class="st2" d="M714.46,19.01c21.88,0,43.75,0,65.63,0c7.72,0,7.73-12,0-12c-21.88,0-43.75,0-65.63,0
				C706.74,7.01,706.73,19.01,714.46,19.01L714.46,19.01z"/>
		</g>
	</g>
	<g>
		<g>
			<path class="st2" d="M817.46,19.01c17.21,0,34.42,0,51.63,0c7.72,0,7.73-12,0-12c-17.21,0-34.42,0-51.63,0
				C809.74,7.01,809.73,19.01,817.46,19.01L817.46,19.01z"/>
		</g>
	</g>
	<g>
		<g>
			<path class="st2" d="M929.46,19.01c15.88,0,31.75,0,47.63,0c7.72,0,7.73-12,0-12c-15.88,0-31.75,0-47.63,0
				C921.74,7.01,921.73,19.01,929.46,19.01L929.46,19.01z"/>
		</g>
	</g>
	<g>
		<g>
			<path class="st2" d="M501.46,19.01c31.21,0,62.42,0,93.63,0c7.72,0,7.73-12,0-12c-31.21,0-62.42,0-93.63,0
				C493.74,7.01,493.73,19.01,501.46,19.01L501.46,19.01z"/>
		</g>
	</g>
</g>
</svg>
