<!-- Generator: Adobe Illustrator 24.1.0, SVG Export Plug-In  -->
<svg version="1.1" xmlns="http://www.w3.org/2000/svg" xmlns:xlink="http://www.w3.org/1999/xlink" x="0px" y="0px"
	 width="1002.82px" height="274.49px" viewBox="0 0 1002.82 274.49" style="enable-background:new 0 0 1002.82 274.49;"
	 xml:space="preserve">
<style type="text/css">
	.st0{fill:#010101;}
	.st1{fill:#E80F4C;}
</style>
<defs>
</defs>
<g>
	<path class="st0" d="M12.83,274.49c-1.35,0-2.71-1.69-2.71-3.05V23.82c0-1.69,1.02-3.39,2.71-3.39h90.78
		c1.69,0,3.05,1.35,3.39,3.39l10.16,67.41c0.34,2.37,1.02,3.39,1.69,3.39c0.68,0,1.35-1.35,1.35-3.73l8.13-66.73
		c0.34-2.03,1.69-3.73,3.73-3.73h94.17c2.37,0,3.73,1.35,3.73,3.73v246.95c0,2.03-1.69,3.39-3.73,3.39h-61.31
		c-2.03,0-3.73-1.36-3.73-3.73V164.74c0-2.71-0.34-3.73-1.02-3.73c-0.68,0-1.35,1.35-2.37,6.77l-17.61,104
		c-0.34,2.03-2.03,2.71-3.73,2.71H98.19c-1.69,0-3.05-1.36-3.73-3.73l-15.58-96.88c-1.02-5.76-2.37-6.77-3.39-6.77
		c-1.02,0-1.69,1.69-1.69,4.4v99.25c0,2.37-1.02,3.73-3.39,3.73H12.83z"/>
	<path class="st0" d="M352.25,20.44c2.37,0,4.06,2.03,4.4,4.4l46.41,242.2c0.68,3.72-1.02,7.45-4.74,7.45h-54.88
		c-2.03,0-4.06-1.36-4.4-3.39l-6.77-50.81c-0.34-1.69-1.69-2.71-3.39-2.71h-18.29c-1.36,0-2.71,1.35-3.05,3.39l-6.44,49.79
		c-0.34,2.37-2.71,3.73-4.4,3.73h-55.89c-3.05,0-4.74-2.37-4.06-5.76L282.13,24.5c0.34-1.69,2.03-4.06,4.07-4.06H352.25z
		 M322.44,148.14c-0.68-4.74-1.35-7.79-2.37-7.79c-1.02,0-1.69,2.37-2.37,7.79l-4.4,32.18c-0.34,1.69,0.34,3.39,2.03,3.39
		c10.84,0,11.86,0,11.52-3.05L322.44,148.14z"/>
	<path class="st0" d="M371.56,23.15c-0.34-1.02,0.34-2.71,2.03-2.71h61.65c1.69,0,3.05,1.02,3.73,3.39l16.26,70.12
		c0.34,1.69,1.35,2.71,1.69,2.71c0.68,0,1.69-1.02,1.69-2.71l15.58-69.1c0.68-2.37,2.03-4.4,4.06-4.4h58.94
		c2.03,0,3.39,2.03,2.71,4.06l-44.38,142.61c-1.36,4.74-3.05,14.23-3.05,17.95v85.03c-0.34,2.37-2.03,4.4-4.74,4.4H421.7
		c-2.03,0-3.73-2.37-4.06-4.06v-86.04c0-5.08-0.68-9.15-3.05-16.6L371.56,23.15z"/>
	<path class="st0" d="M550.76,274.49c-2.71,0-4.06-1.69-4.06-4.06V25.52c0-2.71,1.69-5.08,4.4-5.08h60.64
		c53.86,0,85.7,34.21,85.7,95.86v63.01c0,54.88-30.83,95.19-83.33,95.19H550.76z M629.35,96.65c0-3.39-1.02-6.1-3.05-7.79
		c-1.35-1.02-4.06-2.03-5.76-2.03c-1.35,0-2.03,1.02-2.03,3.05v112.46c0,2.03,0.68,2.71,2.03,2.71c2.03,0,8.81,0,8.81-9.82V96.65z"
		/>
	<path class="st0" d="M814.98,20.44c2.37,0,4.07,2.03,4.4,4.4l46.41,242.2c0.68,3.72-1.02,7.45-4.74,7.45h-54.88
		c-2.03,0-4.07-1.36-4.4-3.39l-6.77-50.81c-0.34-1.69-1.69-2.71-3.39-2.71h-18.29c-1.36,0-2.71,1.35-3.05,3.39l-6.44,49.79
		c-0.34,2.37-2.71,3.73-4.4,3.73h-55.89c-3.05,0-4.74-2.37-4.07-5.76L744.86,24.5c0.34-1.69,2.03-4.06,4.07-4.06H814.98z
		 M785.17,148.14c-0.68-4.74-1.35-7.79-2.37-7.79c-1.02,0-1.69,2.37-2.37,7.79l-4.4,32.18c-0.34,1.69,0.34,3.39,2.03,3.39
		c10.84,0,11.86,0,11.52-3.05L785.17,148.14z"/>
	<path class="st0" d="M834.28,23.15c-0.34-1.02,0.34-2.71,2.03-2.71h61.65c1.69,0,3.05,1.02,3.73,3.39l16.26,70.12
		c0.34,1.69,1.36,2.71,1.69,2.71c0.68,0,1.69-1.02,1.69-2.71l15.58-69.1c0.68-2.37,2.03-4.4,4.07-4.4h58.94
		c2.03,0,3.39,2.03,2.71,4.06l-44.38,142.61c-1.35,4.74-3.05,14.23-3.05,17.95v85.03c-0.34,2.37-2.03,4.4-4.74,4.4h-66.06
		c-2.03,0-3.73-2.37-4.06-4.06v-86.04c0-5.08-0.68-9.15-3.05-16.6L834.28,23.15z"/>
</g>
<g>
	<path class="st1" d="M2.71,254.06c-1.35,0-2.71-1.69-2.71-3.05V3.39C0,1.69,1.02,0,2.71,0h90.78c1.69,0,3.05,1.35,3.39,3.39
		l10.16,67.41c0.34,2.37,1.02,3.39,1.69,3.39c0.68,0,1.35-1.35,1.35-3.73l8.13-66.73c0.34-2.03,1.69-3.73,3.73-3.73h94.17
		c2.37,0,3.73,1.35,3.73,3.73v246.95c0,2.03-1.69,3.39-3.73,3.39h-61.31c-2.03,0-3.73-1.36-3.73-3.73V144.3
		c0-2.71-0.34-3.73-1.02-3.73c-0.68,0-1.35,1.35-2.37,6.77l-17.61,104c-0.34,2.03-2.03,2.71-3.73,2.71H88.07
		c-1.69,0-3.05-1.36-3.73-3.73l-15.58-96.88c-1.02-5.76-2.37-6.77-3.39-6.77c-1.02,0-1.69,1.69-1.69,4.4v99.25
		c0,2.37-1.02,3.73-3.39,3.73H2.71z"/>
	<path class="st1" d="M342.13,0c2.37,0,4.06,2.03,4.4,4.4l46.41,242.2c0.68,3.73-1.02,7.45-4.74,7.45h-54.88
		c-2.03,0-4.06-1.36-4.4-3.39l-6.77-50.81c-0.34-1.69-1.69-2.71-3.39-2.71h-18.29c-1.36,0-2.71,1.35-3.05,3.39l-6.44,49.79
		c-0.34,2.37-2.71,3.73-4.4,3.73h-55.89c-3.05,0-4.74-2.37-4.06-5.76L272.01,4.06c0.34-1.69,2.03-4.06,4.07-4.06H342.13z
		 M312.32,127.71c-0.68-4.74-1.35-7.79-2.37-7.79c-1.02,0-1.69,2.37-2.37,7.79l-4.4,32.18c-0.34,1.69,0.34,3.39,2.03,3.39
		c10.84,0,11.86,0,11.52-3.05L312.32,127.71z"/>
	<path class="st1" d="M361.44,2.71C361.1,1.69,361.78,0,363.47,0h61.65c1.69,0,3.05,1.02,3.73,3.39l16.26,70.12
		c0.34,1.69,1.35,2.71,1.69,2.71c0.68,0,1.69-1.02,1.69-2.71l15.58-69.1c0.68-2.37,2.03-4.4,4.06-4.4h58.94
		c2.03,0,3.39,2.03,2.71,4.06l-44.38,142.61c-1.36,4.74-3.05,14.23-3.05,17.95v85.03c-0.34,2.37-2.03,4.4-4.74,4.4h-66.06
		c-2.03,0-3.73-2.37-4.06-4.06v-86.04c0-5.08-0.68-9.15-3.05-16.6L361.44,2.71z"/>
	<path class="st1" d="M540.64,254.06c-2.71,0-4.06-1.69-4.06-4.06V5.08c0-2.71,1.69-5.08,4.4-5.08h60.64
		c53.86,0,85.7,34.21,85.7,95.86v63.01c0,54.88-30.83,95.19-83.33,95.19H540.64z M619.23,76.22c0-3.39-1.02-6.1-3.05-7.79
		c-1.35-1.02-4.06-2.03-5.76-2.03c-1.35,0-2.03,1.02-2.03,3.05v112.46c0,2.03,0.68,2.71,2.03,2.71c2.03,0,8.81,0,8.81-9.82V76.22z"
		/>
	<path class="st1" d="M804.86,0c2.37,0,4.07,2.03,4.4,4.4l46.41,242.2c0.68,3.73-1.02,7.45-4.74,7.45h-54.88
		c-2.03,0-4.07-1.36-4.4-3.39l-6.77-50.81c-0.34-1.69-1.69-2.71-3.39-2.71h-18.29c-1.36,0-2.71,1.35-3.05,3.39l-6.44,49.79
		c-0.34,2.37-2.71,3.73-4.4,3.73h-55.89c-3.05,0-4.74-2.37-4.07-5.76L734.74,4.06C735.07,2.37,736.77,0,738.8,0H804.86z
		 M775.05,127.71c-0.68-4.74-1.35-7.79-2.37-7.79c-1.02,0-1.69,2.37-2.37,7.79l-4.4,32.18c-0.34,1.69,0.34,3.39,2.03,3.39
		c10.84,0,11.86,0,11.52-3.05L775.05,127.71z"/>
	<path class="st1" d="M824.16,2.71C823.83,1.69,824.5,0,826.2,0h61.65c1.69,0,3.05,1.02,3.73,3.39l16.26,70.12
		c0.34,1.69,1.36,2.71,1.69,2.71c0.68,0,1.69-1.02,1.69-2.71L926.8,4.4c0.68-2.37,2.03-4.4,4.07-4.4h58.94
		c2.03,0,3.39,2.03,2.71,4.06l-44.38,142.61c-1.35,4.74-3.05,14.23-3.05,17.95v85.03c-0.34,2.37-2.03,4.4-4.74,4.4H874.3
		c-2.03,0-3.73-2.37-4.06-4.06v-86.04c0-5.08-0.68-9.15-3.05-16.6L824.16,2.71z"/>
</g>
</svg>
